<svg width="32" height="29" viewBox="0 0 32 29" fill="none" xmlns="http://www.w3.org/2000/svg">
<path d="M14.933 0.207031C11.1274 0.207031 8 3.06054 8 6.54136V15.4156C8 18.8926 11.1232 21.7499 14.933 21.7499H24.6459C28.4516 21.7499 31.5789 18.8964 31.5789 15.4156V6.54136C31.5789 3.06437 28.4557 0.207031 24.6459 0.207031H14.933ZM14.933 2.16547H24.6459C27.2961 2.16547 29.4354 4.12009 29.4354 6.54136V15.4156C29.4354 17.8368 27.2961 19.7914 24.6459 19.7914H14.933C12.2829 19.7914 10.1435 17.8368 10.1435 15.4156V6.54136C10.1435 4.12009 12.2829 2.16547 14.933 2.16547ZM26.1196 4.30752C25.5795 4.30752 25.1483 4.7015 25.1483 5.19494C25.1483 5.68837 25.5795 6.08236 26.1196 6.08236C26.6597 6.08236 27.0909 5.68837 27.0909 5.19494C27.0909 4.7015 26.6597 4.30752 26.1196 4.30752ZM19.7895 5.10314C16.2518 5.10314 13.3589 7.74627 13.3589 10.9785C13.3589 14.2107 16.2518 16.8538 19.7895 16.8538C23.3272 16.8538 26.2201 14.2107 26.2201 10.9785C26.2201 7.74627 23.3272 5.10314 19.7895 5.10314ZM19.7895 7.06158C22.1716 7.06158 24.0766 8.80199 24.0766 10.9785C24.0766 13.1549 22.1716 14.8953 19.7895 14.8953C17.4073 14.8953 15.5024 13.1549 15.5024 10.9785C15.5024 8.80199 17.4073 7.06158 19.7895 7.06158Z" fill="white"/>
</svg>
